Coordinates
version=1
nRows=22
nColumns=24
inDegrees=yes

Units are S.I. units (second, meters, Newtons, ...)
Angles are in degrees.

endheader
time	pelvis_tilt	pelvis_list	pelvis_rotation	pelvis_tx	pelvis_ty	pelvis_tz	hip_flexion_r	hip_adduction_r	hip_rotation_r	knee_angle_r	ankle_angle_r	subtalar_angle_r	mtp_angle_r	hip_flexion_l	hip_adduction_l	hip_rotation_l	knee_angle_l	ankle_angle_l	subtalar_angle_l	mtp_angle_l	lumbar_extension	lumbar_bending	lumbar_rotation
      4.83000000	    -11.08545753	      4.58108925	     -3.19713760	      2.43791204	     -0.00435384	     -0.44489372	     33.04331749	     -8.67722508	     -3.32804353	    -55.29744678	     -6.17325409	      7.73334219	     32.66938416	      9.29058995	      9.08744403	     -5.24726067	     -7.79493784	     -1.78511580	      2.84180100	      8.31614021	     11.19031034	     -6.34029382	     -1.93246856
      4.83500000	    -11.05351737	      4.40530335	     -3.02329035	      2.44283149	     -0.00431965	     -0.44542366	     33.28453817	     -8.47569058	     -3.55642172	    -54.38806381	     -5.90088675	      7.55850308	     31.57781214	      8.81606616	      8.98800090	     -4.93931808	     -7.60143181	     -1.58603794	      2.85447242	      8.12721656	     11.14389536	     -6.14814689	     -2.05899826
      4.84000000	    -11.08097409	      4.24428525	     -2.79465912	      2.44764324	     -0.00438684	     -0.44596731	     33.57380585	     -8.31942825	     -3.86034351	    -53.41194467	     -5.73521285	      7.12559609	     31.15266439	      8.44852667	      8.89783536	     -4.66238463	     -7.46238392	     -1.42016458	      2.91131232	      8.11853130	     11.14298292	     -5.98941061	     -2.23792750
      4.84500000	    -11.10462584	      4.06777135	     -2.61133002	      2.45248879	     -0.00444176	     -0.44649008	     33.84299837	     -8.12950854	     -4.14563936	    -52.38721521	     -5.61970745	      6.70461067	     30.68404278	      8.06990981	      8.78548138	     -4.43006889	     -7.30809792	     -1.26337193	      2.92441438	      8.07757078	     11.15038824	     -5.79666229	     -2.38753619
      4.85000000	    -11.00283001	      3.88259244	     -2.39862147	      2.45730979	     -0.00439701	     -0.44701125	     33.93872038	     -7.95561747	     -4.45140862	    -51.35348510	     -5.33433876	      6.50872608	     29.54753952	      7.55504830	      8.66690117	     -4.09258020	     -7.16986483	     -1.06599203	      2.96055527	      7.94806874	     11.00769674	     -5.61297802	     -2.55687617
      4.85500000	    -11.02704775	      3.73829038	     -2.18535332	      2.46208031	     -0.00451243	     -0.44748420	     34.18567305	     -7.81692098	     -4.77230012	    -50.29840183	     -5.18725693	      6.10842670	     28.71731949	      7.20063952	      8.57525126	     -3.82237017	     -7.04968706	     -0.91294501	      3.03377300	      7.93614689	     11.00543518	     -5.47166226	     -2.71046105
      4.86000000	    -11.01554641	      3.58247766	     -1.99953441	      2.46684244	     -0.00462089	     -0.44793725	     34.37274417	     -7.65522803	     -5.08113199	    -49.20279109	     -5.01263584	      5.72576552	     27.83098050	      6.81554971	      8.46860023	     -3.58814454	     -6.94268956	     -0.75019402	      3.06954397	      7.92278137	     10.96433748	     -5.30868004	     -2.84774378
      4.86500000	    -11.02897833	      3.46119623	     -1.79733309	      2.47153412	     -0.00478608	     -0.44835095	     34.58519031	     -7.53213915	     -5.39497636	    -48.08620704	     -4.89153966	      5.25574555	     27.05578205	      6.47455226	      8.39067220	     -3.35333625	     -6.85481375	     -0.60619381	      3.13852195	      7.94185344	     10.94268835	     -5.19334192	     -3.01741509
      4.87000000	    -11.01689730	      3.30824011	     -1.62671349	      2.47630171	     -0.00490866	     -0.44877453	     34.73968786	     -7.37567194	     -5.72304333	    -46.93497719	     -4.75919985	      4.92371700	     25.98823451	      6.09245338	      8.27529910	     -3.14501849	     -6.74959233	     -0.46407468	      3.20460132	      7.95757829	     10.90491691	     -5.02870253	     -3.12860009
      4.87500000	    -11.03836262	      3.18416827	     -1.46054701	      2.48101519	     -0.00512145	     -0.44915257	     34.92986856	     -7.23889616	     -6.03685650	    -45.77187054	     -4.63281987	      4.55249377	     24.94453003	      5.76789164	      8.18419376	     -2.96501565	     -6.67340649	     -0.32252258	      3.26865862	      8.00280729	     10.89924572	     -4.89524481	     -3.23862252
      4.88000000	    -11.13992284	      3.10776047	     -1.31229034	      2.48564710	     -0.00545882	     -0.44947254	     35.21581755	     -7.12813927	     -6.30443583	    -44.56311113	     -4.66478495	      4.00312764	     24.54747786	      5.55116081	      8.13543771	     -2.78690100	     -6.62265669	     -0.20154717	      3.30183118	      8.04313957	     10.97562532	     -4.80701693	     -3.30999674
      4.88500000	    -11.05539348	      2.97572044	     -1.07129159	      2.49033423	     -0.00556741	     -0.44991087	     35.22653909	     -7.04945774	     -6.74425174	    -43.33142460	     -4.54712752	      3.71015629	     23.47773978	      5.12243912	      8.03688691	     -2.58151451	     -6.56800372	     -0.05557252	      3.47176211	      8.13696110	     10.83976545	     -4.69428669	     -3.52956962
      4.89000000	    -11.09181937	      2.87292753	     -0.91462059	      2.49500985	     -0.00583010	     -0.45022724	     35.39237030	     -6.93489123	     -7.07363613	    -42.10764880	     -4.50163483	      3.47605010	     22.29224083	      4.83016760	      7.95192337	     -2.41622219	     -6.51263840	      0.06352508	      3.58663920	      8.23039804	     10.84711108	     -4.58269177	     -3.59544065
      4.89500000	    -11.12899931	      2.77664931	     -0.77088235	      2.49968465	     -0.00611928	     -0.45053032	     35.53575120	     -6.81347595	     -7.36626522	    -40.83720888	     -4.47533111	      3.26723281	     21.34826278	      4.54884306	      7.87506313	     -2.30391124	     -6.47197276	      0.18240080	      3.66968790	      8.31137337	     10.85671668	     -4.47396428	     -3.72301586
      4.90000000	    -11.25453933	      2.71012130	     -0.63994656	      2.50431438	     -0.00654009	     -0.45079990	     35.77566476	     -6.71376909	     -7.65048176	    -39.52896678	     -4.60312533	      2.97356764	     21.01636658	      4.38063371	      7.82369759	     -2.15349673	     -6.46016800	      0.30218426	      3.71354742	      8.36747182	     10.95984506	     -4.39187596	     -3.75353992
      4.90500000	    -11.19034570	      2.59716679	     -0.43579244	      2.50895994	     -0.00671349	     -0.45113964	     35.75013468	     -6.62685810	     -8.05413372	    -38.20670169	     -4.61179540	      2.92648548	     20.09035820	      3.99787312	      7.72146368	     -2.01572018	     -6.43377024	      0.43736904	      3.94732752	      8.51936482	     10.84361847	     -4.28647617	     -3.91250166
      4.91000000	    -11.30698248	      2.53495058	     -0.28331350	      2.51353841	     -0.00712749	     -0.45136732	     35.94478520	     -6.53174560	     -8.33546395	    -36.87118254	     -4.76824774	      2.76207592	     19.63504941	      3.83934953	      7.66686928	     -1.88223788	     -6.44774396	      0.54688487	      4.03650964	      8.60738548	     10.92569023	     -4.22409168	     -4.01988965
      4.91500000	    -11.28652329	      2.43149857	     -0.13824115	      2.51821946	     -0.00739255	     -0.45163520	     35.94768603	     -6.41172682	     -8.66108488	    -35.52920802	     -4.78789720	      2.92213934	     18.78823430	      3.51597854	      7.56342269	     -1.83006046	     -6.43719098	      0.67798053	      4.26130002	      8.79342376	     10.86870753	     -4.10749358	     -4.10914831
      4.92000000	    -11.43275419	      2.37521344	     -0.02500627	      2.52283208	     -0.00788496	     -0.45184436	     36.14646512	     -6.29888790	     -8.87935629	    -34.16387683	     -4.94939577	      2.98612156	     18.55991651	      3.39957082	      7.50961011	     -1.71412791	     -6.47214318	      0.80007537	      4.32362306	      8.87312347	     10.98922632	     -4.03054757	     -4.14797499
      4.92500000	    -11.42349277	      2.26914311	      0.17182620	      2.52741144	     -0.00814958	     -0.45209437	     36.12929754	     -6.19108944	     -9.21755947	    -32.78648576	     -5.07156361	      3.17376403	     18.04214315	      3.12178730	      7.39216664	     -1.62553516	     -6.51158954	      0.94126721	      4.62824552	      9.09447111	     10.92136853	     -3.93680347	     -4.32178499
      4.93000000	    -11.54241054	      2.19126980	      0.31186183	      2.53205189	     -0.00859696	     -0.45229044	     36.26343064	     -6.07148615	     -9.49152330	    -31.41903986	     -5.23412836	      3.36609397	     17.80475229	      2.98324965	      7.30554405	     -1.52381797	     -6.55774056	      1.05869457	      4.78118415	      9.22056696	     11.01164534	     -3.85063084	     -4.39153753
      4.93500000	    -11.59431858	      2.09817232	      0.48461704	      2.53667574	     -0.00897347	     -0.45250076	     36.29611712	     -5.94627314	     -9.73206993	    -30.03876476	     -5.33648084	      3.67628886	     17.57444986	      2.78295016	      7.19574614	     -1.44191438	     -6.62052742	      1.20215958	      5.05289239	      9.41723507	     11.02048794	     -3.75987092	     -4.53311892
